<?xml version="1.0" encoding="UTF-8" standalone="no"?>
<!DOCTYPE svg PUBLIC "-//W3C//DTD SVG 1.1//EN" "http://www.w3.org/Graphics/SVG/1.1/DTD/svg11.dtd">
<svg xmlns="http://www.w3.org/2000/svg" version="1.1" viewBox="0 0 879 1191">
<path fill="#000000" d="M 447.29,41.25 Q 449.79,67.49 449.32,93.84 A 0.15,0.11 -83.0 0 0 449.41,93.99 L 449.51,94.00 A 0.31,0.17 -75.1 0 0 449.74,93.76 Q 454.49,79.17 463.54,66.80 Q 474.94,51.21 492.83,43.87 Q 493.63,43.54 492.75,43.46 Q 493.21,43.20 493.75,43.20 Q 494.40,43.20 494.72,43.09 Q 511.51,37.29 529.27,39.50 Q 532.11,39.86 529.29,40.36 Q 521.56,41.75 514.00,44.75 Q 513.05,45.13 513.25,45.71 Q 511.56,45.60 510.06,46.32 Q 488.85,56.52 474.19,74.94 Q 464.80,86.73 459.05,97.25 Q 458.81,97.69 459.23,97.40 Q 476.82,85.16 493.56,76.31 Q 525.53,59.42 562.25,54.04 Q 606.91,53.43 648.81,70.94 Q 671.60,80.46 690.74,92.73 Q 729.22,117.41 758.93,152.12 Q 759.32,152.58 758.78,152.66 Q 758.04,152.78 757.57,151.93 Q 756.91,150.76 755.75,151.21 Q 751.33,147.71 746.56,144.70 Q 709.19,121.06 667.00,107.75 Q 614.05,91.05 555.50,90.89 Q 505.95,90.77 456.92,102.53 A 1.84,1.83 -83.8 0 0 455.68,103.53 Q 452.54,110.05 450.67,115.56 Q 446.23,128.61 441.19,141.44 Q 441.00,141.91 440.82,141.44 Q 436.24,129.87 432.30,118.07 Q 429.82,110.63 426.43,103.55 A 1.84,1.83 83.8 0 0 425.19,102.55 Q 348.12,83.99 269.76,95.35 Q 198.44,105.69 137.30,143.54 Q 133.87,145.66 130.79,148.25 Q 129.85,147.89 129.19,148.44 Q 126.52,150.67 123.69,152.68 Q 122.09,153.82 123.03,152.20 Q 123.17,151.95 123.38,151.71 Q 161.48,107.58 213.07,80.38 Q 252.93,59.37 297.00,54.75 Q 308.74,53.52 322.46,54.25 Q 322.52,54.83 322.99,54.80 Q 323.44,54.78 323.52,54.79 Q 346.14,58.11 365.75,66.00 Q 396.02,78.17 422.56,97.40 Q 423.60,98.16 422.98,97.03 Q 413.77,80.49 400.48,66.77 Q 388.07,53.95 371.94,46.31 Q 371.02,45.88 370.00,45.96 Q 370.01,44.45 368.50,44.65 Q 367.94,44.72 367.54,44.56 Q 359.92,41.43 351.77,40.13 Q 351.39,40.07 351.53,39.85 A 0.62,0.37 4.0 0 1 351.92,39.65 Q 368.69,37.31 384.19,42.06 Q 388.88,43.50 390.25,43.79 Q 390.11,44.44 390.59,44.55 Q 391.20,44.68 391.25,44.71 Q 412.72,54.64 424.00,75.00 Q 428.46,83.05 432.51,93.48 Q 432.69,93.93 432.68,93.43 Q 432.39,67.29 434.71,41.25 Q 436.60,21.73 440.40,2.49 A 1.26,0.78 89.7 0 1 440.89,1.69 Q 441.59,1.32 441.86,2.73 Q 445.51,21.85 447.29,41.25 Z"/>
<path fill="#000000" d="M 417.25,41.79 Q 417.05,41.99 417.04,42.22 Q 417.03,42.40 417.21,42.60 Q 423.98,49.68 425.13,59.45 Q 425.19,59.94 424.84,59.58 Q 413.98,48.54 399.50,42.96 Q 399.41,41.66 398.25,41.69 Q 397.72,41.70 397.30,41.53 L 387.80,37.69 Q 386.78,37.27 387.82,36.99 Q 392.81,35.66 398.25,35.55 Q 408.41,35.34 415.69,41.06 Q 416.67,41.84 417.25,41.79 Z"/>
<path fill="#000000" d="M 482.50,42.71 Q 468.35,48.63 457.42,59.34 Q 457.06,59.69 457.12,59.20 Q 458.28,49.06 465.46,41.75 Q 474.19,34.95 486.25,35.75 Q 491.01,36.06 494.04,37.30 Q 494.46,37.47 494.03,37.66 L 482.50,42.71 Z"/>
<path fill="#f9bda5" d="M 434.71,41.25 Q 432.39,67.29 432.68,93.43 Q 432.69,93.93 432.51,93.48 Q 428.46,83.05 424.00,75.00 Q 412.72,54.64 391.25,44.71 Q 391.20,44.68 390.59,44.55 Q 390.11,44.44 390.25,43.79 L 399.50,42.96 Q 413.98,48.54 424.84,59.58 Q 425.19,59.94 425.13,59.45 Q 423.98,49.68 417.21,42.60 Q 417.03,42.40 417.04,42.22 Q 417.05,41.99 417.25,41.79 L 434.71,41.25 Z"/>
<path fill="#f9bda5" d="M 447.29,41.25 L 465.46,41.75 Q 458.28,49.06 457.12,59.20 Q 457.06,59.69 457.42,59.34 Q 468.35,48.63 482.50,42.71 L 492.75,43.46 Q 493.63,43.54 492.83,43.87 Q 474.94,51.21 463.54,66.80 Q 454.49,79.17 449.74,93.76 A 0.31,0.17 -75.1 0 1 449.51,94.00 L 449.41,93.99 A 0.15,0.11 -83.0 0 1 449.32,93.84 Q 449.79,67.49 447.29,41.25 Z"/>
<path fill="#f9bda5" d="M 513.25,45.71 Q 537.91,48.91 562.25,54.04 Q 525.53,59.42 493.56,76.31 Q 476.82,85.16 459.23,97.40 Q 458.81,97.69 459.05,97.25 Q 464.80,86.73 474.19,74.94 Q 488.85,56.52 510.06,46.32 Q 511.56,45.60 513.25,45.71 Z"/>
<path fill="#f9bda5" d="M 370.00,45.96 Q 371.02,45.88 371.94,46.31 Q 388.07,53.95 400.48,66.77 Q 413.77,80.49 422.98,97.03 Q 423.60,98.16 422.56,97.40 Q 396.02,78.17 365.75,66.00 Q 346.14,58.11 323.52,54.79 Q 323.44,54.78 322.99,54.80 Q 322.52,54.83 322.46,54.25 Q 346.06,49.11 370.00,45.96 Z"/>
<path fill="#f9bda5" d="M 755.75,151.21 Q 839.57,230.96 846.96,347.50 L 846.85,347.50 A 0.11,0.11 87.1 0 1 846.74,347.40 Q 841.93,314.60 830.19,285.31 Q 812.82,242.02 783.48,204.06 Q 727.18,131.22 637.07,115.82 Q 627.62,114.20 617.24,113.29 Q 596.66,111.49 578.00,112.50 Q 515.81,115.85 459.33,139.14 Q 457.28,139.99 459.48,139.75 Q 529.74,132.18 598.20,149.21 Q 638.23,159.16 672.44,179.06 Q 707.33,199.36 733.67,230.78 Q 739.49,237.71 745.75,246.69 Q 769.40,280.57 786.56,319.19 Q 814.30,381.58 818.51,449.02 Q 819.17,459.61 819.04,469.00 Q 818.80,486.76 816.33,504.33 Q 816.19,505.30 816.68,504.45 Q 845.16,454.81 848.50,397.50 Q 848.55,396.61 849.21,396.75 Q 866.52,452.71 874.37,510.77 Q 878.94,544.48 878.76,578.50 Q 878.61,606.28 873.75,632.50 Q 872.11,641.35 868.48,650.74 Q 859.92,672.87 845.22,691.48 Q 831.22,709.20 813.72,723.48 Q 795.68,738.19 775.47,749.74 Q 754.71,761.61 732.69,770.94 Q 710.71,780.25 682.96,789.00 Q 633.96,803.42 588.25,810.50 Q 443.41,832.93 296.31,811.19 Q 248.45,804.11 198.25,789.29 Q 148.89,774.67 104.13,749.33 Q 84.11,738.00 66.29,723.47 Q 48.57,709.03 34.48,691.03 Q 19.60,672.03 11.31,650.44 Q 8.04,641.90 6.11,631.23 Q 1.40,605.08 1.25,578.50 Q 1.06,544.48 5.61,510.77 Q 13.83,449.94 32.54,391.50 Q 33.23,391.47 33.25,392.00 Q 35.51,450.89 64.83,503.57 Q 65.77,505.25 65.50,503.34 Q 62.30,479.95 63.37,455.01 Q 65.93,395.26 87.21,339.44 Q 106.29,289.39 137.12,245.61 Q 157.37,216.84 183.94,196.44 Q 220.61,168.27 266.14,154.03 Q 299.24,143.68 333.74,139.89 Q 378.36,135.00 423.02,139.75 Q 424.44,139.90 423.12,139.36 Q 362.80,114.45 297.24,112.44 Q 277.56,111.83 258.01,114.06 Q 169.72,124.15 110.83,189.82 Q 97.66,204.51 83.94,224.94 Q 56.14,266.32 42.95,312.31 Q 34.93,340.27 33.50,365.75 Q 33.26,370.11 32.79,371.50 Q 31.98,284.38 76.81,212.06 Q 98.27,177.46 130.79,148.25 Q 133.87,145.66 137.30,143.54 Q 198.44,105.69 269.76,95.35 Q 348.12,83.99 425.19,102.55 A 1.84,1.83 83.8 0 1 426.43,103.55 Q 429.82,110.63 432.30,118.07 Q 436.24,129.87 440.82,141.44 Q 441.00,141.91 441.19,141.44 Q 446.23,128.61 450.67,115.56 Q 452.54,110.05 455.68,103.53 A 1.84,1.83 -83.8 0 1 456.92,102.53 Q 505.95,90.77 555.50,90.89 Q 614.05,91.05 667.00,107.75 Q 709.19,121.06 746.56,144.70 Q 751.33,147.71 755.75,151.21 ZM 456.07,610.64 Q 461.40,615.03 468.22,613.37 Q 474.61,611.81 477.19,606.69 Q 488.06,585.12 510.95,579.72 Q 527.93,575.71 541.94,583.31 Q 552.56,589.07 560.01,600.05 Q 563.58,605.30 565.39,606.69 Q 569.47,609.80 574.44,609.46 Q 580.76,609.03 585.18,603.96 Q 591.52,596.72 585.44,586.56 Q 579.43,576.53 570.04,568.25 Q 562.37,561.50 553.50,557.12 Q 526.30,543.67 496.25,554.00 Q 468.98,563.37 454.63,588.07 Q 450.69,594.84 450.48,599.09 Q 450.14,605.76 456.07,610.64 ZM 319.41,590.08 Q 330.11,593.81 338.05,602.70 Q 342.04,607.17 345.33,612.17 Q 349.28,618.17 356.51,618.57 Q 364.08,619.00 368.19,613.94 Q 375.34,605.14 368.50,595.25 Q 360.67,583.92 352.71,577.06 Q 330.23,557.67 301.49,559.01 Q 291.48,559.48 281.87,562.51 Q 263.54,568.30 249.69,581.94 Q 241.99,589.51 236.87,599.42 Q 234.24,604.50 233.91,607.76 Q 233.41,612.66 236.25,616.75 Q 241.69,624.58 250.61,622.93 Q 254.60,622.19 257.27,619.87 Q 259.98,617.52 261.75,613.75 Q 266.38,603.91 276.25,596.98 Q 287.08,589.38 299.70,587.98 Q 310.09,586.82 319.41,590.08 ZM 358.94,749.06 Q 373.75,761.31 391.93,759.57 Q 401.46,758.66 410.41,753.81 Q 418.93,749.19 426.03,741.82 A 0.82,0.81 44.8 0 1 427.20,741.82 Q 432.65,747.37 438.98,751.45 Q 445.51,755.67 452.63,757.88 Q 471.78,763.82 489.21,754.43 Q 496.92,750.27 501.52,744.53 Q 506.80,737.94 508.25,729.75 Q 510.66,716.15 506.44,702.81 A 0.51,0.49 71.4 0 0 505.80,702.48 Q 427.76,729.81 349.88,702.04 A 0.37,0.37 18.8 0 0 349.41,702.27 Q 345.82,712.97 346.73,724.00 Q 347.37,731.80 350.11,737.66 Q 353.24,744.35 358.94,749.06 Z"/>
<path fill="#000000" d="M 32.54,391.50 Q 33.17,389.55 33.05,387.50 Q 32.57,379.51 32.79,371.50 Q 33.26,370.11 33.50,365.75 Q 34.93,340.27 42.95,312.31 Q 56.14,266.32 83.94,224.94 Q 97.66,204.51 110.83,189.82 Q 169.72,124.15 258.01,114.06 Q 277.56,111.83 297.24,112.44 Q 362.80,114.45 423.12,139.36 Q 424.44,139.90 423.02,139.75 Q 378.36,135.00 333.74,139.89 Q 299.24,143.68 266.14,154.03 Q 220.61,168.27 183.94,196.44 Q 157.37,216.84 137.12,245.61 Q 106.29,289.39 87.21,339.44 Q 65.93,395.26 63.37,455.01 Q 62.30,479.95 65.50,503.34 Q 65.77,505.25 64.83,503.57 Q 35.51,450.89 33.25,392.00 Q 33.23,391.47 32.54,391.50 Z"/>
<path fill="#000000" d="M 846.96,347.50 Q 849.67,371.93 849.00,393.50 Q 848.93,395.80 849.21,396.75 Q 848.55,396.61 848.50,397.50 Q 845.16,454.81 816.68,504.45 Q 816.19,505.30 816.33,504.33 Q 818.80,486.76 819.04,469.00 Q 819.17,459.61 818.51,449.02 Q 814.30,381.58 786.56,319.19 Q 769.40,280.57 745.75,246.69 Q 739.49,237.71 733.67,230.78 Q 707.33,199.36 672.44,179.06 Q 638.23,159.16 598.20,149.21 Q 529.74,132.18 459.48,139.75 Q 457.28,139.99 459.33,139.14 Q 515.81,115.85 578.00,112.50 Q 596.66,111.49 617.24,113.29 Q 627.62,114.20 637.07,115.82 Q 727.18,131.22 783.48,204.06 Q 812.82,242.02 830.19,285.31 Q 841.93,314.60 846.74,347.40 A 0.11,0.11 87.1 0 0 846.85,347.50 L 846.96,347.50 Z"/>
<path fill="#000000" d="M 456.07,610.64 Q 450.14,605.76 450.48,599.09 Q 450.69,594.84 454.63,588.07 Q 468.98,563.37 496.25,554.00 Q 526.30,543.67 553.50,557.12 Q 562.37,561.50 570.04,568.25 Q 579.43,576.53 585.44,586.56 Q 591.52,596.72 585.18,603.96 Q 580.76,609.03 574.44,609.46 Q 569.47,609.80 565.39,606.69 Q 563.58,605.30 560.01,600.05 Q 552.56,589.07 541.94,583.31 Q 527.93,575.71 510.95,579.72 Q 488.06,585.12 477.19,606.69 Q 474.61,611.81 468.22,613.37 Q 461.40,615.03 456.07,610.64 Z"/>
<path fill="#000000" d="M 299.70,587.98 Q 287.08,589.38 276.25,596.98 Q 266.38,603.91 261.75,613.75 Q 259.98,617.52 257.27,619.87 Q 254.60,622.19 250.61,622.93 Q 241.69,624.58 236.25,616.75 Q 233.41,612.66 233.91,607.76 Q 234.24,604.50 236.87,599.42 Q 241.99,589.51 249.69,581.94 Q 263.54,568.30 281.87,562.51 Q 291.48,559.48 301.49,559.01 Q 330.23,557.67 352.71,577.06 Q 360.67,583.92 368.50,595.25 Q 375.34,605.14 368.19,613.94 Q 364.08,619.00 356.51,618.57 Q 349.28,618.17 345.33,612.17 Q 342.04,607.17 338.05,602.70 Q 330.11,593.81 319.41,590.08 Q 310.09,586.82 299.70,587.98 Z"/>
<path fill="#fefefe" d="M 358.94,749.06 Q 353.24,744.35 350.11,737.66 Q 347.37,731.80 346.73,724.00 Q 345.82,712.97 349.41,702.27 A 0.37,0.37 18.8 0 1 349.88,702.04 Q 427.76,729.81 505.80,702.48 A 0.51,0.49 71.4 0 1 506.44,702.81 Q 510.66,716.15 508.25,729.75 Q 506.80,737.94 501.52,744.53 Q 496.92,750.27 489.21,754.43 Q 471.78,763.82 452.63,757.88 Q 445.51,755.67 438.98,751.45 Q 432.65,747.37 427.20,741.82 A 0.82,0.81 44.8 0 0 426.03,741.82 Q 418.93,749.19 410.41,753.81 Q 401.46,758.66 391.93,759.57 Q 373.75,761.31 358.94,749.06 Z"/>
<path fill="#ea1b23" d="M 682.96,789.00 Q 691.87,801.87 696.69,814.31 Q 705.31,836.60 706.96,862.25 L 675.84,872.31 A 0.81,0.81 75.4 0 0 675.29,873.25 Q 684.01,915.35 686.43,957.25 Q 686.57,959.53 687.04,961.75 Q 690.58,1027.38 687.03,1093.00 A 1.56,1.54 -23.9 0 1 686.68,1093.89 Q 679.96,1101.99 670.25,1107.25 Q 660.99,1112.27 652.75,1115.54 Q 626.24,1124.99 593.75,1130.75 Q 565.79,1135.71 537.50,1138.26 Q 455.17,1145.70 372.72,1140.43 Q 360.16,1139.63 352.77,1139.07 Q 304.72,1135.40 257.75,1124.50 Q 254.27,1123.69 238.25,1119.04 Q 232.10,1116.80 220.19,1111.81 Q 205.25,1105.56 194.89,1094.05 A 1.37,1.32 -68.2 0 1 194.54,1093.19 Q 190.82,1028.10 194.46,963.00 Q 197.19,917.62 206.09,873.04 A 0.57,0.55 15.0 0 0 205.71,872.41 L 173.96,861.75 Q 174.27,858.54 174.85,855.38 Q 175.55,851.61 175.88,849.06 Q 180.07,816.58 198.25,789.29 Q 248.45,804.11 296.31,811.19 Q 443.41,832.93 588.25,810.50 Q 633.96,803.42 682.96,789.00 Z"/>
<path fill="#f9bda5" d="M 173.96,861.75 L 205.71,872.41 A 0.57,0.55 15.0 0 1 206.09,873.04 Q 197.19,917.62 194.46,963.00 Q 173.24,933.32 172.00,895.75 Q 171.39,877.38 173.96,861.75 Z"/>
<path fill="#f9bda5" d="M 706.96,862.25 Q 708.01,868.98 708.75,881.25 Q 710.28,906.53 703.00,930.25 Q 697.82,947.15 687.04,961.75 Q 686.57,959.53 686.43,957.25 Q 684.01,915.35 675.29,873.25 A 0.81,0.81 75.4 0 1 675.84,872.31 L 706.96,862.25 Z"/>
<path fill="#fefefe" d="M 652.75,1115.54 Q 648.37,1125.27 640.44,1132.43 Q 631.45,1140.54 620.50,1145.74 Q 609.41,1151.01 597.60,1154.40 Q 597.56,1154.41 596.89,1154.51 Q 596.27,1154.60 595.96,1155.25 Q 595.24,1155.20 593.00,1155.75 Q 560.43,1163.76 524.50,1164.79 Q 487.85,1166.17 451.25,1163.79 Q 444.52,1163.35 434.50,1164.00 Q 397.33,1166.41 356.50,1164.46 Q 356.04,1164.04 355.50,1164.11 Q 354.97,1164.18 354.88,1164.17 Q 319.44,1162.73 285.50,1152.54 Q 268.36,1146.98 254.56,1137.19 Q 244.68,1130.18 238.25,1119.04 Q 254.27,1123.69 257.75,1124.50 Q 304.72,1135.40 352.77,1139.07 Q 360.16,1139.63 372.72,1140.43 Q 455.17,1145.70 537.50,1138.26 Q 565.79,1135.71 593.75,1130.75 Q 626.24,1124.99 652.75,1115.54 Z"/>
<path fill="#f9bda5" d="M 285.50,1152.54 Q 319.44,1162.73 354.88,1164.17 Q 354.97,1164.18 355.50,1164.11 Q 356.04,1164.04 356.50,1164.46 Q 356.05,1164.43 356.04,1164.75 Q 355.79,1182.60 339.19,1188.44 Q 333.48,1190.44 324.94,1191.00 Q 322.19,1191.00 319.44,1191.00 Q 308.70,1190.02 299.36,1185.44 Q 289.10,1180.42 285.32,1173.13 Q 280.58,1163.99 285.50,1152.54 Z"/>
<path fill="#f9bda5" d="M 595.96,1155.25 Q 599.83,1165.30 595.27,1173.63 Q 592.65,1178.42 587.09,1182.33 Q 582.13,1185.82 576.20,1187.73 Q 568.97,1190.05 561.44,1191.00 Q 558.31,1191.00 555.19,1191.00 Q 546.98,1190.40 540.31,1187.94 Q 527.69,1183.28 525.22,1170.07 Q 525.13,1169.60 524.97,1167.42 Q 524.87,1166.09 524.50,1164.79 Q 560.43,1163.76 593.00,1155.75 Q 595.24,1155.20 595.96,1155.25 Z"/>
</svg>
