<?xml version="1.0" standalone="no"?><svg xmlns="http://www.w3.org/2000/svg" viewBox="0 0 1440 320"><path fill="#000b76" fill-opacity="1" d="M0,32L18.5,26.7C36.9,21,74,11,111,42.7C147.7,75,185,149,222,154.7C258.5,160,295,96,332,106.7C369.2,117,406,203,443,208C480,213,517,139,554,112C590.8,85,628,107,665,128C701.5,149,738,171,775,170.7C812.3,171,849,149,886,154.7C923.1,160,960,192,997,192C1033.8,192,1071,160,1108,176C1144.6,192,1182,256,1218,266.7C1255.4,277,1292,235,1329,197.3C1366.2,160,1403,128,1422,112L1440,96L1440,320L1421.5,320C1403.1,320,1366,320,1329,320C1292.3,320,1255,320,1218,320C1181.5,320,1145,320,1108,320C1070.8,320,1034,320,997,320C960,320,923,320,886,320C849.2,320,812,320,775,320C738.5,320,702,320,665,320C627.7,320,591,320,554,320C516.9,320,480,320,443,320C406.2,320,369,320,332,320C295.4,320,258,320,222,320C184.6,320,148,320,111,320C73.8,320,37,320,18,320L0,320Z"></path></svg>